<svg width="587" height="59" viewBox="0 0 587 59" fill="none" xmlns="http://www.w3.org/2000/svg">
<mask id="path-1-inside-1_1_3" fill="white">
<path d="M6.46875 0C8.15625 0.0625 9.59375 0.6875 10.7812 1.875C11.9688 3 12.5938 4.40625 12.6562 6.09375V21.75H43.125V6.09375C43.1875 4.34375 43.8438 2.90625 45.0938 1.78125C46.3438 0.59375 47.8438 0 49.5938 0C51.2812 0.0625 52.7188 0.6875 53.9062 1.875C55.0938 3 55.7188 4.40625 55.7812 6.09375V52.0312C55.4062 55.7812 53.3438 57.8125 49.5938 58.125C47.8438 58.125 46.3125 57.5625 45 56.4375C43.75 55.25 43.125 53.7812 43.125 52.0312V34.3125H12.6562V52.0312C12.2812 55.7812 10.2188 57.8125 6.46875 58.125C4.71875 58.125 3.1875 57.5625 1.875 56.4375C0.625 55.25 0 53.7812 0 52.0312V6.09375C0.0625 4.34375 0.71875 2.90625 1.96875 1.78125C3.21875 0.59375 4.71875 0 6.46875 0ZM73.6875 0C75.4375 0 76.9375 0.59375 78.1875 1.78125C79.4375 2.90625 80.0938 4.34375 80.1562 6.09375V7.875C80.0938 10.4375 80.25 12.8125 80.625 15C81.0625 17.125 82.0625 19.0312 83.625 20.7188C85.1875 22.4062 87.1562 23.3125 89.5312 23.4375H115.875V6.28125C115.875 4.53125 116.5 3.09375 117.75 1.96875C119.062 0.78125 120.594 0.1875 122.344 0.1875C126.094 0.5 128.156 2.53125 128.531 6.28125V28.0312C128.531 33.0312 127.844 37.75 126.469 42.1875C125.219 46.125 123.156 49.4688 120.281 52.2188C117.469 54.9062 113.875 56.375 109.5 56.625H75.75C74.0625 56.5625 72.625 55.9688 71.4375 54.8438C70.3125 53.6562 69.7188 52.2188 69.6562 50.5312C69.6562 48.7812 70.2188 47.2812 71.3438 46.0312C72.5312 44.7812 74 44.125 75.75 44.0625H106.312C108.688 43.9375 110.656 43.0312 112.219 41.3438C113.656 39.7812 114.625 38 115.125 36H86.3438C81.9688 35.75 78.3438 34.2812 75.4688 31.5938C72.6562 28.8438 70.625 25.5 69.375 21.5625C68.1875 17.625 67.5625 13.4375 67.5 9V6.09375C67.5625 4.40625 68.1875 3 69.375 1.875C70.5625 0.6875 72 0.0625 73.6875 0ZM153.469 51.8438C153.094 55.5938 151.031 57.625 147.281 57.9375C145.531 57.9375 144 57.375 142.688 56.25C141.438 55.0625 140.812 53.5938 140.812 51.8438V7.59375C140.875 5.84375 141.531 4.40625 142.781 3.28125C144.031 2.09375 145.531 1.5 147.281 1.5H186.656C192.156 1.6875 196.312 2.90625 199.125 5.15625C201.938 7.34375 203.969 9.84375 205.219 12.6562C206.469 15.4688 207.094 18.3125 207.094 21.1875C207.094 24.1875 206.469 27.0938 205.219 29.9062C204.031 32.7188 202 35.25 199.125 37.5C196.312 39.6875 192.719 40.75 188.344 40.6875H164.719C162.969 40.6875 161.5 40.0625 160.312 38.8125C159.062 37.625 158.438 36.1562 158.438 34.4062C158.438 32.6562 159.031 31.1875 160.219 30C161.469 28.75 162.969 28.125 164.719 28.125H188.906C190.094 28.125 191.062 27.75 191.812 27C192.625 26.1875 193.219 25.2812 193.594 24.2812C193.969 23.2188 194.156 22.1562 194.156 21.0938C194.156 20.0938 193.969 19.0938 193.594 18.0938C193.219 17.0312 192.625 16.125 191.812 15.375C191.062 14.5625 190.094 14.125 188.906 14.0625H155.906C154.281 14.125 153.469 14.9375 153.469 16.5V51.8438ZM234.469 1.5H238.781H270.656C272.406 1.5625 273.844 2.21875 274.969 3.46875C276.156 4.71875 276.75 6.21875 276.75 7.96875C276.438 11.7188 274.406 13.75 270.656 14.0625H237.656C235.281 14.1875 233.312 15.0938 231.75 16.7812C230.188 18.4688 229.031 20.4062 228.281 22.5938C227.594 24.7188 227.25 26.9062 227.25 29.1562C227.25 31.4062 227.594 33.625 228.281 35.8125C229.031 37.9375 230.188 39.8438 231.75 41.5312C233.312 43.2188 235.281 44.125 237.656 44.25H270.656C272.406 44.3125 273.844 44.9688 274.969 46.2188C276.156 47.4688 276.75 48.9688 276.75 50.7188C276.688 52.4062 276.062 53.8438 274.875 55.0312C273.75 56.1562 272.344 56.75 270.656 56.8125H236.25H234.469C230.094 56.5625 226.469 54.9062 223.594 51.8438C220.781 48.7188 218.75 45.1875 217.5 41.25C216.312 37.3125 215.719 33.2812 215.719 29.1562C215.719 25.0312 216.344 21 217.594 17.0625C218.844 13.125 220.875 9.625 223.688 6.5625C226.5 3.4375 230.094 1.75 234.469 1.5ZM276.562 28.7812C276.562 30.5312 275.938 32 274.688 33.1875C273.5 34.4375 272.031 35.0625 270.281 35.0625H241.969C240.219 35.0625 238.719 34.4688 237.469 33.2812C236.281 32.0312 235.688 30.5312 235.688 28.7812C235.688 27.0312 236.281 25.5312 237.469 24.2812C238.719 23.0938 240.219 22.5 241.969 22.5H270.281C272.031 22.5 273.5 23.125 274.688 24.375C275.938 25.5625 276.562 27.0312 276.562 28.7812ZM307.5 14.0625C305.125 14.1875 303.125 15.0938 301.5 16.7812C299.938 18.4688 298.812 20.4062 298.125 22.5938C297.438 24.7188 297.094 26.9062 297.094 29.1562C297.094 31.4062 297.406 33.625 298.031 35.8125C298.719 38 299.875 39.9375 301.5 41.625C303.125 43.25 305.125 44.125 307.5 44.25H338.438C342.375 44.625 344.531 46.7812 344.906 50.7188C344.844 52.4688 344.188 53.9375 342.938 55.125C341.688 56.25 340.188 56.8125 338.438 56.8125H308.531H304.219C299.844 56.5625 296.25 54.9062 293.438 51.8438C290.625 48.7188 288.594 45.1875 287.344 41.25C286.156 37.3125 285.562 33.2812 285.562 29.1562C285.562 26.0938 285.906 23.0625 286.594 20.0625C287.281 17.0625 288.344 14.2188 289.781 11.5312C291.281 8.78125 293.25 6.4375 295.688 4.5C298.188 2.5625 301.031 1.5625 304.219 1.5H306H338.438C342.375 1.875 344.531 4.03125 344.906 7.96875C344.906 9.71875 344.25 11.1875 342.938 12.375C341.688 13.5 340.188 14.0625 338.438 14.0625H307.5ZM383.438 58.9688C380.188 58.9688 376.969 58.5938 373.781 57.8438C370.656 57.0938 367.656 56 364.781 54.5625C361.906 53.0625 359.375 51.0938 357.188 48.6562C355 46.2188 353.812 43.3125 353.625 39.9375V36V6.09375C353.625 4.34375 354.25 2.90625 355.5 1.78125C356.812 0.59375 358.344 0 360.094 0C363.844 0.3125 365.875 2.34375 366.188 6.09375V37.0312C366.312 38.9688 367.031 40.5938 368.344 41.9062C369.719 43.1562 371.219 44.1562 372.844 44.9062C374.531 45.6562 376.25 46.2188 378 46.5938C379.812 46.9688 381.625 47.1562 383.438 47.1562C385.25 47.1562 387.031 46.9688 388.781 46.5938C390.594 46.2188 392.312 45.6562 393.938 44.9062C395.625 44.1562 397.125 43.1562 398.438 41.9062C399.812 40.5938 400.562 38.9688 400.688 37.0312V6.09375C400.688 4.34375 401.312 2.90625 402.562 1.78125C403.875 0.59375 405.406 0 407.156 0C410.906 0.3125 412.969 2.34375 413.344 6.09375V36V39.9375C413.156 43.3125 411.938 46.2188 409.688 48.6562C407.5 51.0938 404.969 53.0625 402.094 54.5625C399.219 56 396.188 57.0938 393 57.8438C389.875 58.5938 386.688 58.9688 383.438 58.9688ZM432.094 0C433.844 0 435.344 0.59375 436.594 1.78125C437.844 2.90625 438.5 4.34375 438.562 6.09375V28.6875C438.5 31.25 438.656 33.625 439.031 35.8125C439.469 37.9375 440.469 39.8438 442.031 41.5312C443.594 43.2188 445.562 44.125 447.938 44.25H477.938C479.688 44.3125 481.125 44.9688 482.25 46.2188C483.438 47.4688 484.031 48.9688 484.031 50.7188C483.969 52.4062 483.344 53.8438 482.156 55.0312C481.031 56.1562 479.625 56.75 477.938 56.8125H444.75C440.375 56.5625 436.75 55.0938 433.875 52.4062C431.062 49.6562 429.031 46.3125 427.781 42.375C426.594 38.4375 425.969 34.25 425.906 29.8125V6.09375C425.969 4.40625 426.594 3 427.781 1.875C428.969 0.6875 430.406 0.0625 432.094 0ZM491.156 7.78125C491.156 6.03125 491.75 4.5625 492.938 3.375C494.188 2.125 495.688 1.5 497.438 1.5H552C553.75 1.5 555.25 2.09375 556.5 3.28125C557.688 4.53125 558.281 6.03125 558.281 7.78125C558.281 9.53125 557.656 11.0312 556.406 12.2812C555.219 13.4688 553.75 14.0625 552 14.0625H531.094V52.0312C530.719 55.7812 528.656 57.8125 524.906 58.125C523.156 58.125 521.625 57.5625 520.312 56.4375C519.062 55.25 518.438 53.7812 518.438 52.0312V14.0625H497.438C495.688 14.0625 494.219 13.4375 493.031 12.1875C491.781 11 491.156 9.53125 491.156 7.78125ZM577.781 58.3125C575.281 58.3125 573.188 57.4375 571.5 55.6875C569.875 53.9375 569.062 51.75 569.062 49.125C569.062 46.5 569.875 44.3125 571.5 42.5625C573.188 40.8125 575.281 39.9375 577.781 39.9375C580.281 39.9375 582.375 40.8125 584.062 42.5625C585.75 44.3125 586.594 46.5 586.594 49.125C586.594 51.75 585.75 53.9375 584.062 55.6875C582.375 57.4375 580.281 58.3125 577.781 58.3125Z"/>
</mask>
<path d="M6.46875 0L6.54277 -1.99863L6.50577 -2H6.46875V0ZM10.7812 1.875L9.36704 3.28922L9.38614 3.30832L9.40576 3.3269L10.7812 1.875ZM12.6562 6.09375H14.6562V6.05672L14.6549 6.01973L12.6562 6.09375ZM12.6562 21.75H10.6562V23.75H12.6562V21.75ZM43.125 21.75V23.75H45.125V21.75H43.125ZM43.125 6.09375L41.1263 6.02237L41.125 6.05805V6.09375H43.125ZM45.0938 1.78125L46.4317 3.26784L46.4517 3.24981L46.4712 3.23125L45.0938 1.78125ZM49.5938 0L49.6678 -1.99863L49.6308 -2H49.5938V0ZM53.9062 1.875L52.492 3.28922L52.5111 3.30832L52.5308 3.3269L53.9062 1.875ZM55.7812 6.09375H57.7812V6.05672L57.7799 6.01973L55.7812 6.09375ZM55.7812 52.0312L57.7713 52.2303L57.7812 52.131V52.0312H55.7812ZM49.5938 58.125V60.125H49.6769L49.7598 60.1181L49.5938 58.125ZM45 56.4375L43.6225 57.8875L43.6596 57.9227L43.6984 57.956L45 56.4375ZM43.125 34.3125H45.125V32.3125H43.125V34.3125ZM12.6562 34.3125V32.3125H10.6562V34.3125H12.6562ZM12.6562 52.0312L14.6463 52.2303L14.6562 52.131V52.0312H12.6562ZM6.46875 58.125V60.125H6.55194L6.63484 60.1181L6.46875 58.125ZM1.875 56.4375L0.497501 57.8875L0.534583 57.9227L0.573417 57.956L1.875 56.4375ZM0 6.09375L-1.99873 6.02237L-2 6.05805V6.09375H0ZM1.96875 1.78125L3.30668 3.26784L3.32671 3.24981L3.34625 3.23125L1.96875 1.78125ZM6.46875 0L6.39473 1.99863C7.58085 2.04256 8.53869 2.46087 9.36704 3.28922L10.7812 1.875L12.1955 0.460785C10.6488 -1.08587 8.73165 -1.91756 6.54277 -1.99863L6.46875 0ZM10.7812 1.875L9.40576 3.3269C10.1997 4.0791 10.6138 4.98458 10.6576 6.16777L12.6562 6.09375L14.6549 6.01973C14.5737 3.82792 13.7378 1.9209 12.1567 0.423096L10.7812 1.875ZM12.6562 6.09375H10.6562V21.75H12.6562H14.6562V6.09375H12.6562ZM12.6562 21.75V23.75H43.125V21.75V19.75H12.6562V21.75ZM43.125 21.75H45.125V6.09375H43.125H41.125V21.75H43.125ZM43.125 6.09375L45.1237 6.16513C45.1678 4.93185 45.6029 4.01371 46.4317 3.26784L45.0938 1.78125L43.7558 0.294662C42.0846 1.79879 41.2072 3.75565 41.1263 6.02237L43.125 6.09375ZM45.0938 1.78125L46.4712 3.23125C47.3434 2.40272 48.3479 2 49.5938 2V0V-2C47.3396 -2 45.3441 -1.21522 43.7163 0.331249L45.0938 1.78125ZM49.5938 0L49.5197 1.99863C50.7059 2.04256 51.6637 2.46087 52.492 3.28922L53.9062 1.875L55.3205 0.460785C53.7738 -1.08587 51.8566 -1.91756 49.6678 -1.99863L49.5938 0ZM53.9062 1.875L52.5308 3.3269C53.3247 4.0791 53.7388 4.98458 53.7826 6.16777L55.7812 6.09375L57.7799 6.01973C57.6987 3.82792 56.8628 1.9209 55.2817 0.423096L53.9062 1.875ZM55.7812 6.09375H53.7812V52.0312H55.7812H57.7812V6.09375H55.7812ZM55.7812 52.0312L53.7912 51.8322C53.6359 53.3849 53.159 54.3422 52.5497 54.9422C51.9409 55.5419 50.9784 56.0027 49.4277 56.1319L49.5938 58.125L49.7598 60.1181C51.9591 59.9348 53.9029 59.2237 55.3565 57.7922C56.8098 56.3609 57.5516 54.4276 57.7713 52.2303L55.7812 52.0312ZM49.5938 58.125V56.125C48.3147 56.125 47.2467 55.7291 46.3016 54.919L45 56.4375L43.6984 57.956C45.3783 59.3959 47.3728 60.125 49.5938 60.125V58.125ZM45 56.4375L46.3775 54.9875C45.5317 54.184 45.125 53.2423 45.125 52.0312H43.125H41.125C41.125 54.3202 41.9683 56.316 43.6225 57.8875L45 56.4375ZM43.125 52.0312H45.125V34.3125H43.125H41.125V52.0312H43.125ZM43.125 34.3125V32.3125H12.6562V34.3125V36.3125H43.125V34.3125ZM12.6562 34.3125H10.6562V52.0312H12.6562H14.6562V34.3125H12.6562ZM12.6562 52.0312L10.6662 51.8322C10.5109 53.3849 10.034 54.3422 9.42475 54.9422C8.81586 55.5419 7.85342 56.0027 6.30266 56.1319L6.46875 58.125L6.63484 60.1181C8.83408 59.9348 10.7779 59.2237 12.2315 57.7922C13.6848 56.3609 14.4266 54.4276 14.6463 52.2303L12.6562 52.0312ZM6.46875 58.125V56.125C5.1897 56.125 4.12171 55.7291 3.17658 54.919L1.875 56.4375L0.573417 57.956C2.25329 59.3959 4.2478 60.125 6.46875 60.125V58.125ZM1.875 56.4375L3.2525 54.9875C2.40666 54.184 2 53.2423 2 52.0312H0H-2C-2 54.3202 -1.15666 56.316 0.497501 57.8875L1.875 56.4375ZM0 52.0312H2V6.09375H0H-2V52.0312H0ZM0 6.09375L1.99873 6.16513C2.04277 4.93185 2.47793 4.01371 3.30668 3.26784L1.96875 1.78125L0.630821 0.294662C-1.04043 1.79879 -1.91777 3.75565 -1.99873 6.02237L0 6.09375ZM1.96875 1.78125L3.34625 3.23125C4.21839 2.40272 5.22287 2 6.46875 2V0V-2C4.21463 -2 2.21911 -1.21522 0.591251 0.331249L1.96875 1.78125ZM73.6875 0V-2H73.6505L73.6135 -1.99863L73.6875 0ZM78.1875 1.78125L76.81 3.23125L76.8295 3.24981L76.8496 3.26784L78.1875 1.78125ZM80.1562 6.09375H82.1562V6.05805L82.155 6.02237L80.1562 6.09375ZM80.1562 7.875L82.1557 7.92377L82.1562 7.89939V7.875H80.1562ZM80.625 15L78.6538 15.3379L78.6594 15.3707L78.6661 15.4033L80.625 15ZM89.5312 23.4375L89.4261 25.4347L89.4787 25.4375H89.5312V23.4375ZM115.875 23.4375V25.4375H117.875V23.4375H115.875ZM117.75 1.96875L119.088 3.45535L119.092 3.45182L117.75 1.96875ZM122.344 0.1875L122.51 -1.80559L122.427 -1.8125H122.344V0.1875ZM128.531 6.28125H130.531V6.1815L130.521 6.08224L128.531 6.28125ZM126.469 42.1875L128.375 42.7927L128.379 42.7794L126.469 42.1875ZM120.281 52.2188L121.663 53.6647L121.664 53.664L120.281 52.2188ZM109.5 56.625V58.625H109.557L109.614 58.6217L109.5 56.625ZM75.75 56.625L75.676 58.6236L75.713 58.625H75.75V56.625ZM71.4375 54.8438L69.9856 56.2192L70.0228 56.2585L70.062 56.2957L71.4375 54.8438ZM69.6562 50.5312H67.6562V50.5683L67.6576 50.6053L69.6562 50.5312ZM71.3438 46.0312L69.8938 44.6537L69.8752 44.6733L69.8572 44.6933L71.3438 46.0312ZM75.75 44.0625V42.0625H75.7143L75.6786 42.0638L75.75 44.0625ZM106.312 44.0625V46.0625H106.365L106.418 46.0597L106.312 44.0625ZM112.219 41.3438L113.686 42.7026L113.691 42.6979L112.219 41.3438ZM115.125 36L117.065 36.4851L117.687 34H115.125V36ZM86.3438 36L86.2297 37.9967L86.2867 38H86.3438V36ZM75.4688 31.5938L74.0705 33.0238L74.0866 33.0395L74.103 33.0548L75.4688 31.5938ZM69.375 21.5625L67.4602 22.14L67.4644 22.1539L67.4688 22.1677L69.375 21.5625ZM67.5 9H65.5V9.01408L65.5002 9.02817L67.5 9ZM67.5 6.09375L65.5014 6.01973L65.5 6.05672V6.09375H67.5ZM69.375 1.875L70.7505 3.3269L70.7701 3.30832L70.7892 3.28922L69.375 1.875ZM73.6875 0V2C74.9334 2 75.9379 2.40272 76.81 3.23125L78.1875 1.78125L79.565 0.331249C77.9371 -1.21522 75.9416 -2 73.6875 -2V0ZM78.1875 1.78125L76.8496 3.26784C77.6783 4.01371 78.1135 4.93185 78.1575 6.16513L80.1562 6.09375L82.155 6.02237C82.074 3.75565 81.1967 1.79879 79.5254 0.294662L78.1875 1.78125ZM80.1562 6.09375H78.1562V7.875H80.1562H82.1562V6.09375H80.1562ZM80.1562 7.875L78.1568 7.82623C78.0917 10.4988 78.2538 13.0049 78.6538 15.3379L80.625 15L82.5962 14.6621C82.2462 12.6201 82.0958 10.3762 82.1557 7.92377L80.1562 7.875ZM80.625 15L78.6661 15.4033C79.1816 17.9074 80.3626 20.1391 82.1575 22.0776L83.625 20.7188L85.0925 19.3599C83.7624 17.9234 82.9434 16.3426 82.5839 14.5967L80.625 15ZM83.625 20.7188L82.1575 22.0776C84.0869 24.1614 86.5509 25.2834 89.4261 25.4347L89.5312 23.4375L89.6364 21.4403C87.7616 21.3416 86.2881 20.6511 85.0925 19.3599L83.625 20.7188ZM89.5312 23.4375V25.4375H115.875V23.4375V21.4375H89.5312V23.4375ZM115.875 23.4375H117.875V6.28125H115.875H113.875V23.4375H115.875ZM115.875 6.28125H117.875C117.875 5.07209 118.278 4.18392 119.088 3.45534L117.75 1.96875L116.412 0.482162C114.722 2.00358 113.875 3.99041 113.875 6.28125H115.875ZM117.75 1.96875L119.092 3.45182C120.041 2.59282 121.096 2.1875 122.344 2.1875V0.1875V-1.8125C120.092 -1.8125 118.084 -1.03032 116.408 0.48568L117.75 1.96875ZM122.344 0.1875L122.178 2.18059C123.728 2.30982 124.691 2.77062 125.3 3.37028C125.909 3.97028 126.386 4.9276 126.541 6.48026L128.531 6.28125L130.521 6.08224C130.302 3.8849 129.56 1.9516 128.107 0.520344C126.653 -0.911243 124.709 -1.62232 122.51 -1.80559L122.344 0.1875ZM128.531 6.28125H126.531V28.0312H128.531H130.531V6.28125H128.531ZM128.531 28.0312H126.531C126.531 32.8458 125.87 37.3638 124.558 41.5956L126.469 42.1875L128.379 42.7794C129.818 38.1362 130.531 33.2167 130.531 28.0312H128.531ZM126.469 42.1875L124.562 41.5823C123.41 45.2131 121.522 48.2643 118.899 50.7735L120.281 52.2188L121.664 53.664C124.79 50.6732 127.028 47.0369 128.375 42.7927L126.469 42.1875ZM120.281 52.2188L118.9 50.7728C116.474 53.0902 113.35 54.4017 109.386 54.6283L109.5 56.625L109.614 58.6217C114.4 58.3483 118.463 56.7223 121.663 53.6647L120.281 52.2188ZM109.5 56.625V54.625H75.75V56.625V58.625H109.5V56.625ZM75.75 56.625L75.824 54.6264C74.6052 54.5812 73.6352 54.1708 72.813 53.3918L71.4375 54.8438L70.062 56.2957C71.6148 57.7667 73.5198 58.5438 75.676 58.6236L75.75 56.625ZM71.4375 54.8438L72.8894 53.4683C72.1104 52.646 71.7 51.6761 71.6549 50.4572L69.6562 50.5312L67.6576 50.6053C67.7375 52.7614 68.5146 54.6665 69.9856 56.2192L71.4375 54.8438ZM69.6562 50.5312H71.6562C71.6562 49.2533 72.0503 48.2359 72.8303 47.3692L71.3438 46.0312L69.8572 44.6933C68.3872 46.3266 67.6562 48.3092 67.6562 50.5312H69.6562ZM71.3438 46.0312L72.7937 47.4088C73.6144 46.5449 74.5854 46.1054 75.8214 46.0612L75.75 44.0625L75.6786 42.0638C73.4146 42.1446 71.4481 43.0176 69.8938 44.6537L71.3438 46.0312ZM75.75 44.0625V46.0625H106.312V44.0625V42.0625H75.75V44.0625ZM106.312 44.0625L106.418 46.0597C109.293 45.9084 111.757 44.7864 113.686 42.7026L112.219 41.3438L110.751 39.9849C109.556 41.2761 108.082 41.9666 106.207 42.0653L106.312 44.0625ZM112.219 41.3438L113.691 42.6979C115.347 40.897 116.482 38.8193 117.065 36.4851L115.125 36L113.185 35.5149C112.768 37.1807 111.965 38.6655 110.747 39.9896L112.219 41.3438ZM115.125 36V34H86.3438V36V38H115.125V36ZM86.3438 36L86.4578 34.0033C82.4934 33.7767 79.3286 32.4641 76.8345 30.1327L75.4688 31.5938L74.103 33.0548C77.3589 36.0984 81.4441 37.7233 86.2297 37.9967L86.3438 36ZM75.4688 31.5938L76.867 30.1637C74.3007 27.6545 72.4372 24.5986 71.2812 20.9573L69.375 21.5625L67.4688 22.1677C68.8128 26.4014 71.0118 30.033 74.0705 33.0238L75.4688 31.5938ZM69.375 21.5625L71.2898 20.985C70.1601 17.2393 69.5599 13.2378 69.4998 8.97183L67.5 9L65.5002 9.02817C65.5651 13.6372 66.2149 18.0107 67.4602 22.14L69.375 21.5625ZM67.5 9H69.5V6.09375H67.5H65.5V9H67.5ZM67.5 6.09375L69.4986 6.16777C69.5424 4.98458 69.9565 4.0791 70.7505 3.3269L69.375 1.875L67.9995 0.423096C66.4185 1.9209 65.5826 3.82792 65.5014 6.01973L67.5 6.09375ZM69.375 1.875L70.7892 3.28922C71.6176 2.46087 72.5754 2.04256 73.7615 1.99863L73.6875 0L73.6135 -1.99863C71.4246 -1.91756 69.5074 -1.08587 67.9608 0.460785L69.375 1.875ZM153.469 51.8438L155.459 52.0428L155.469 51.9435V51.8438H153.469ZM147.281 57.9375V59.9375H147.364L147.447 59.9306L147.281 57.9375ZM142.688 56.25L141.31 57.7L141.347 57.7352L141.386 57.7685L142.688 56.25ZM140.812 7.59375L138.814 7.52237L138.812 7.55805V7.59375H140.812ZM142.781 3.28125L144.119 4.76784L144.139 4.74981L144.159 4.73125L142.781 3.28125ZM186.656 1.5L186.724 -0.49884L186.69 -0.5H186.656V1.5ZM199.125 5.15625L197.876 6.71799L197.886 6.72654L197.897 6.73495L199.125 5.15625ZM205.219 29.9062L203.391 29.094L203.384 29.1111L203.376 29.1283L205.219 29.9062ZM199.125 37.5L200.353 39.0787L200.358 39.075L199.125 37.5ZM188.344 40.6875L188.372 38.6877L188.358 38.6875H188.344V40.6875ZM160.312 38.8125L161.762 37.435L161.727 37.3978L161.69 37.3625L160.312 38.8125ZM193.594 24.2812L195.466 24.9835L195.473 24.9653L195.48 24.9469L193.594 24.2812ZM193.594 18.0938L191.708 18.7594L191.714 18.7778L191.721 18.796L193.594 18.0938ZM191.812 15.375L190.343 16.7316L190.397 16.7903L190.456 16.8446L191.812 15.375ZM188.906 14.0625L189.011 12.0653L188.959 12.0625H188.906V14.0625ZM155.906 14.0625V12.0625H155.868L155.829 12.064L155.906 14.0625ZM153.469 51.8438L151.479 51.6447C151.323 53.1974 150.846 54.1547 150.237 54.7547C149.628 55.3544 148.666 55.8152 147.115 55.9444L147.281 57.9375L147.447 59.9306C149.647 59.7473 151.59 59.0362 153.044 57.6047C154.497 56.1734 155.239 54.2401 155.459 52.0428L153.469 51.8438ZM147.281 57.9375V55.9375C146.002 55.9375 144.934 55.5416 143.989 54.7315L142.688 56.25L141.386 57.7685C143.066 59.2084 145.06 59.9375 147.281 59.9375V57.9375ZM142.688 56.25L144.065 54.8C143.219 53.9965 142.812 53.0548 142.812 51.8438H140.812H138.812C138.812 54.1327 139.656 56.1285 141.31 57.7L142.688 56.25ZM140.812 51.8438H142.812V7.59375H140.812H138.812V51.8438H140.812ZM140.812 7.59375L142.811 7.66513C142.855 6.43185 143.29 5.51371 144.119 4.76784L142.781 3.28125L141.443 1.79466C139.772 3.29879 138.895 5.25565 138.814 7.52237L140.812 7.59375ZM142.781 3.28125L144.159 4.73125C145.031 3.90272 146.035 3.5 147.281 3.5V1.5V-0.5C145.027 -0.5 143.032 0.284782 141.404 1.83125L142.781 3.28125ZM147.281 1.5V3.5H186.656V1.5V-0.5H147.281V1.5ZM186.656 1.5L186.588 3.49884C191.872 3.67897 195.535 4.84576 197.876 6.71799L199.125 5.15625L200.374 3.59451C197.09 0.966736 192.441 -0.303967 186.724 -0.49884L186.656 1.5ZM199.125 5.15625L197.897 6.73495C200.491 8.75232 202.295 11.0013 203.391 13.4685L205.219 12.6562L207.046 11.844C205.643 8.68615 203.384 5.93518 200.353 3.57755L199.125 5.15625ZM205.219 12.6562L203.391 13.4685C204.536 16.0436 205.094 18.6117 205.094 21.1875H207.094H209.094C209.094 18.0133 208.402 14.8939 207.046 11.844L205.219 12.6562ZM207.094 21.1875H205.094C205.094 23.9003 204.531 26.5304 203.391 29.094L205.219 29.9062L207.046 30.7185C208.407 27.6571 209.094 24.4747 209.094 21.1875H207.094ZM205.219 29.9062L203.376 29.1283C202.345 31.5716 200.552 33.8435 197.892 35.925L199.125 37.5L200.358 39.075C203.448 36.6565 205.718 33.8659 207.061 30.6842L205.219 29.9062ZM199.125 37.5L197.897 35.9213C195.519 37.7706 192.399 38.7452 188.372 38.6877L188.344 40.6875L188.315 42.6873C193.038 42.7548 197.106 41.6044 200.353 39.0787L199.125 37.5ZM188.344 40.6875V38.6875H164.719V40.6875V42.6875H188.344V40.6875ZM164.719 40.6875V38.6875C163.508 38.6875 162.566 38.2808 161.762 37.435L160.312 38.8125L158.863 40.19C160.434 41.8442 162.43 42.6875 164.719 42.6875V40.6875ZM160.312 38.8125L161.69 37.3625C160.844 36.559 160.438 35.6173 160.438 34.4062H158.438H156.438C156.438 36.6952 157.281 38.691 158.935 40.2625L160.312 38.8125ZM158.438 34.4062H160.438C160.438 33.1618 160.838 32.2094 161.633 31.4142L160.219 30L158.805 28.5858C157.225 30.1656 156.438 32.1507 156.438 34.4062H158.438ZM160.219 30L161.633 31.4142C162.512 30.535 163.505 30.125 164.719 30.125V28.125V26.125C162.432 26.125 160.425 26.965 158.805 28.5858L160.219 30ZM164.719 28.125V30.125H188.906V28.125V26.125H164.719V28.125ZM188.906 28.125V30.125C190.555 30.125 192.055 29.5856 193.227 28.4142L191.812 27L190.398 25.5858C190.07 25.9144 189.633 26.125 188.906 26.125V28.125ZM191.812 27L193.227 28.4142C194.226 27.4154 194.984 26.2707 195.466 24.9835L193.594 24.2812L191.721 23.579C191.454 24.2918 191.024 24.9596 190.398 25.5858L191.812 27ZM193.594 24.2812L195.48 24.9469C195.926 23.6836 196.156 22.3964 196.156 21.0938H194.156H192.156C192.156 21.9161 192.012 22.7539 191.708 23.6156L193.594 24.2812ZM194.156 21.0938H196.156C196.156 19.838 195.92 18.6007 195.466 17.3915L193.594 18.0938L191.721 18.796C192.018 19.5868 192.156 20.3495 192.156 21.0938H194.156ZM193.594 18.0938L195.48 17.4281C194.998 16.0646 194.226 14.8806 193.169 13.9054L191.812 15.375L190.456 16.8446C191.024 17.3694 191.439 17.9979 191.708 18.7594L193.594 18.0938ZM191.812 15.375L193.282 14.0184C192.15 12.7919 190.677 12.1529 189.011 12.0653L188.906 14.0625L188.801 16.0597C189.511 16.0971 189.975 16.3331 190.343 16.7316L191.812 15.375ZM188.906 14.0625V12.0625H155.906V14.0625V16.0625H188.906V14.0625ZM155.906 14.0625L155.829 12.064C154.722 12.1066 153.551 12.4176 152.664 13.3045C151.764 14.2047 151.469 15.3841 151.469 16.5H153.469H155.469C155.469 16.2779 155.498 16.1607 155.513 16.1161C155.525 16.0809 155.524 16.1009 155.492 16.133C155.418 16.2074 155.465 16.0809 155.983 16.061L155.906 14.0625ZM153.469 16.5H151.469V51.8438H153.469H155.469V16.5H153.469ZM234.469 1.5V-0.5H234.412L234.355 -0.496742L234.469 1.5ZM270.656 1.5L270.728 -0.498726L270.692 -0.5H270.656V1.5ZM274.969 3.46875L273.482 4.80668L273.5 4.82671L273.519 4.84625L274.969 3.46875ZM276.75 7.96875L278.743 8.13484L278.75 8.05194V7.96875H276.75ZM270.656 14.0625V16.0625H270.739L270.822 16.0556L270.656 14.0625ZM237.656 14.0625V12.0625H237.604L237.551 12.0653L237.656 14.0625ZM228.281 22.5938L226.389 21.9451L226.384 21.9616L226.378 21.9781L228.281 22.5938ZM228.281 35.8125L226.373 36.4122L226.384 36.4453L226.395 36.4781L228.281 35.8125ZM237.656 44.25L237.551 46.2472L237.604 46.25H237.656V44.25ZM270.656 44.25L270.728 42.2513L270.692 42.25H270.656V44.25ZM274.969 46.2188L273.482 47.5567L273.5 47.5767L273.519 47.5963L274.969 46.2188ZM276.75 50.7188L278.749 50.7928L278.75 50.7558V50.7188H276.75ZM270.656 56.8125V58.8125H270.693L270.73 58.8111L270.656 56.8125ZM234.469 56.8125L234.355 58.8092L234.412 58.8125H234.469V56.8125ZM223.594 51.8438L222.107 53.1817L222.121 53.1973L222.136 53.2126L223.594 51.8438ZM217.5 41.25L215.585 41.8275L215.589 41.8414L215.594 41.8552L217.5 41.25ZM223.688 6.5625L225.161 7.91531L225.167 7.90791L225.174 7.90043L223.688 6.5625ZM274.688 33.1875L273.31 31.7375L273.273 31.7728L273.237 31.81L274.688 33.1875ZM237.469 33.2812L236.019 34.6587L236.054 34.6959L236.091 34.7312L237.469 33.2812ZM237.469 24.2812L236.091 22.8312L236.054 22.8666L236.019 22.9038L237.469 24.2812ZM274.688 24.375L273.237 25.7525L273.273 25.7897L273.31 25.825L274.688 24.375ZM234.469 1.5V3.5H238.781V1.5V-0.5H234.469V1.5ZM238.781 1.5V3.5H270.656V1.5V-0.5H238.781V1.5ZM270.656 1.5L270.585 3.49873C271.818 3.54277 272.736 3.97793 273.482 4.80668L274.969 3.46875L276.455 2.13082C274.951 0.459572 272.994 -0.41777 270.728 -0.498726L270.656 1.5ZM274.969 3.46875L273.519 4.84625C274.347 5.71838 274.75 6.72287 274.75 7.96875H276.75H278.75C278.75 5.71463 277.965 3.71912 276.419 2.09125L274.969 3.46875ZM276.75 7.96875L274.757 7.80266C274.628 9.35451 274.167 10.3013 273.578 10.8905C272.989 11.4796 272.042 11.9401 270.49 12.0694L270.656 14.0625L270.822 16.0556C273.021 15.8724 274.964 15.161 276.406 13.7189C277.848 12.2768 278.56 10.333 278.743 8.13484L276.75 7.96875ZM270.656 14.0625V12.0625H237.656V14.0625V16.0625H270.656V14.0625ZM237.656 14.0625L237.551 12.0653C234.676 12.2166 232.212 13.3386 230.282 15.4224L231.75 16.7812L233.218 18.1401C234.413 16.8489 235.887 16.1584 237.761 16.0597L237.656 14.0625ZM231.75 16.7812L230.282 15.4224C228.529 17.3157 227.229 19.4954 226.389 21.9451L228.281 22.5938L230.173 23.2424C230.833 21.3171 231.846 19.6218 233.218 18.1401L231.75 16.7812ZM228.281 22.5938L226.378 21.9781C225.626 24.3035 225.25 26.6988 225.25 29.1562H227.25H229.25C229.25 27.1137 229.561 25.134 230.184 23.2094L228.281 22.5938ZM227.25 29.1562H225.25C225.25 31.6135 225.626 34.0344 226.373 36.4122L228.281 35.8125L230.189 35.2128C229.562 33.2156 229.25 31.199 229.25 29.1562H227.25ZM228.281 35.8125L226.395 36.4781C227.238 38.8657 228.539 41.0067 230.282 42.8901L231.75 41.5312L233.218 40.1724C231.836 38.6808 230.825 37.0093 230.167 35.1469L228.281 35.8125ZM231.75 41.5312L230.282 42.8901C232.212 44.9739 234.676 46.0959 237.551 46.2472L237.656 44.25L237.761 42.2528C235.887 42.1541 234.413 41.4636 233.218 40.1724L231.75 41.5312ZM237.656 44.25V46.25H270.656V44.25V42.25H237.656V44.25ZM270.656 44.25L270.585 46.2487C271.818 46.2928 272.736 46.7279 273.482 47.5567L274.969 46.2188L276.455 44.8808C274.951 43.2096 272.994 42.3322 270.728 42.2513L270.656 44.25ZM274.969 46.2188L273.519 47.5963C274.347 48.4684 274.75 49.4729 274.75 50.7188H276.75H278.75C278.75 48.4646 277.965 46.4691 276.419 44.8412L274.969 46.2188ZM276.75 50.7188L274.751 50.6447C274.707 51.8308 274.289 52.7887 273.461 53.617L274.875 55.0312L276.289 56.4455C277.836 54.8988 278.668 52.9817 278.749 50.7928L276.75 50.7188ZM274.875 55.0312L273.461 53.617C272.716 54.3617 271.799 54.7688 270.582 54.8139L270.656 56.8125L270.73 58.8111C272.888 58.7312 274.784 57.9508 276.289 56.4455L274.875 55.0312ZM270.656 56.8125V54.8125H236.25V56.8125V58.8125H270.656V56.8125ZM236.25 56.8125V54.8125H234.469V56.8125V58.8125H236.25V56.8125ZM234.469 56.8125L234.583 54.8158C230.695 54.5936 227.56 53.146 225.052 50.4749L223.594 51.8438L222.136 53.2126C225.378 56.6665 229.492 58.5314 234.355 58.8092L234.469 56.8125ZM223.594 51.8438L225.08 50.5058C222.455 47.5886 220.569 44.3061 219.406 40.6448L217.5 41.25L215.594 41.8552C216.931 46.0689 219.108 49.8489 222.107 53.1817L223.594 51.8438ZM217.5 41.25L219.415 40.6725C218.284 36.9229 217.719 33.0862 217.719 29.1562H215.719H213.719C213.719 33.4763 214.341 37.7021 215.585 41.8275L217.5 41.25ZM215.719 29.1562H217.719C217.719 25.2369 218.312 21.4097 219.5 17.6677L217.594 17.0625L215.688 16.4573C214.375 20.5903 213.719 24.8256 213.719 29.1562H215.719ZM217.594 17.0625L219.5 17.6677C220.661 14.0098 222.544 10.7646 225.161 7.91531L223.688 6.5625L222.214 5.20969C219.206 8.48542 217.026 12.2402 215.688 16.4573L217.594 17.0625ZM223.688 6.5625L225.174 7.90043C227.618 5.18547 230.71 3.71807 234.583 3.49674L234.469 1.5L234.355 -0.496742C229.478 -0.218075 225.382 1.68953 222.201 5.22457L223.688 6.5625ZM276.562 28.7812H274.562C274.562 29.9923 274.156 30.934 273.31 31.7375L274.688 33.1875L276.065 34.6375C277.719 33.066 278.562 31.0702 278.562 28.7812H276.562ZM274.688 33.1875L273.237 31.81C272.434 32.6558 271.492 33.0625 270.281 33.0625V35.0625V37.0625C272.57 37.0625 274.566 36.2192 276.138 34.565L274.688 33.1875ZM270.281 35.0625V33.0625H241.969V35.0625V37.0625H270.281V35.0625ZM241.969 35.0625V33.0625C240.723 33.0625 239.718 32.6598 238.846 31.8313L237.469 33.2812L236.091 34.7312C237.719 36.2777 239.715 37.0625 241.969 37.0625V35.0625ZM237.469 33.2812L238.919 31.9038C238.09 31.0316 237.688 30.0271 237.688 28.7812H235.688H233.688C233.688 31.0354 234.472 33.0309 236.019 34.6587L237.469 33.2812ZM235.688 28.7812H237.688C237.688 27.5354 238.09 26.5309 238.919 25.6587L237.469 24.2812L236.019 22.9038C234.472 24.5316 233.688 26.5271 233.688 28.7812H235.688ZM237.469 24.2812L238.846 25.7312C239.718 24.9027 240.723 24.5 241.969 24.5V22.5V20.5C239.715 20.5 237.719 21.2848 236.091 22.8312L237.469 24.2812ZM241.969 22.5V24.5H270.281V22.5V20.5H241.969V22.5ZM270.281 22.5V24.5C271.492 24.5 272.434 24.9067 273.237 25.7525L274.688 24.375L276.138 22.9975C274.566 21.3433 272.57 20.5 270.281 20.5V22.5ZM274.688 24.375L273.31 25.825C274.156 26.6285 274.562 27.5702 274.562 28.7812H276.562H278.562C278.562 26.4923 277.719 24.4965 276.065 22.925L274.688 24.375ZM307.5 14.0625V12.0625H307.447L307.395 12.0653L307.5 14.0625ZM301.5 16.7812L300.059 15.394L300.046 15.4081L300.032 15.4224L301.5 16.7812ZM298.125 22.5938L300.028 23.2094L300.03 23.2014L300.033 23.1934L298.125 22.5938ZM298.031 35.8125L296.108 36.3619L296.115 36.3871L296.123 36.4122L298.031 35.8125ZM301.5 41.625L300.059 43.0123L300.072 43.0259L300.086 43.0392L301.5 41.625ZM307.5 44.25L307.395 46.2472L307.447 46.25H307.5V44.25ZM338.438 44.25L338.627 42.259L338.533 42.25H338.438V44.25ZM344.906 50.7188L346.905 50.7901L346.91 50.6594L346.897 50.5291L344.906 50.7188ZM342.938 55.125L344.275 56.6116L344.295 56.5936L344.315 56.575L342.938 55.125ZM304.219 56.8125L304.105 58.8092L304.162 58.8125H304.219V56.8125ZM293.438 51.8438L291.951 53.1817L291.958 53.1892L291.964 53.1966L293.438 51.8438ZM287.344 41.25L285.429 41.8275L285.433 41.8414L285.438 41.8552L287.344 41.25ZM289.781 11.5312L288.025 10.5735L288.022 10.5807L288.018 10.5879L289.781 11.5312ZM295.688 4.5L294.462 2.91917L294.453 2.9267L294.443 2.93435L295.688 4.5ZM304.219 1.5V-0.5H304.199L304.18 -0.499615L304.219 1.5ZM338.438 1.5L338.627 -0.49099L338.533 -0.5H338.438V1.5ZM344.906 7.96875H346.906V7.87373L346.897 7.77913L344.906 7.96875ZM342.938 12.375L344.275 13.8616L344.279 13.8581L342.938 12.375ZM307.5 14.0625L307.395 12.0653C304.522 12.2165 302.042 13.3351 300.059 15.394L301.5 16.7812L302.941 18.1685C304.208 16.8524 305.728 16.1585 307.605 16.0597L307.5 14.0625ZM301.5 16.7812L300.032 15.4224C298.269 17.3266 296.994 19.5232 296.217 21.9941L298.125 22.5938L300.033 23.1934C300.631 21.2893 301.606 19.6109 302.968 18.1401L301.5 16.7812ZM298.125 22.5938L296.222 21.9781C295.47 24.3035 295.094 26.6988 295.094 29.1562H297.094H299.094C299.094 27.1137 299.405 25.134 300.028 23.2094L298.125 22.5938ZM297.094 29.1562H295.094C295.094 31.5942 295.433 33.9978 296.108 36.3619L298.031 35.8125L299.954 35.2631C299.38 33.2522 299.094 31.2183 299.094 29.1562H297.094ZM298.031 35.8125L296.123 36.4122C296.906 38.9014 298.225 41.1069 300.059 43.0123L301.5 41.625L302.941 40.2377C301.525 38.7681 300.532 37.0986 299.939 35.2128L298.031 35.8125ZM301.5 41.625L300.086 43.0392C302.073 45.0268 304.545 46.0973 307.395 46.2472L307.5 44.25L307.605 42.2528C305.705 42.1527 304.177 41.4732 302.914 40.2108L301.5 41.625ZM307.5 44.25V46.25H338.438V44.25V42.25H307.5V44.25ZM338.438 44.25L338.248 46.241C339.893 46.3977 340.931 46.9004 341.594 47.5627C342.256 48.2249 342.759 49.2629 342.915 50.9084L344.906 50.7188L346.897 50.5291C346.679 48.2371 345.916 46.2282 344.422 44.7342C342.928 43.2403 340.919 42.4773 338.627 42.259L338.438 44.25ZM344.906 50.7188L342.908 50.6474C342.863 51.8834 342.424 52.8543 341.56 53.675L342.938 55.125L344.315 56.575C345.951 55.0207 346.824 53.0541 346.905 50.7901L344.906 50.7188ZM342.938 55.125L341.6 53.6384C340.733 54.4184 339.715 54.8125 338.438 54.8125V56.8125V58.8125C340.66 58.8125 342.642 58.0816 344.275 56.6116L342.938 55.125ZM338.438 56.8125V54.8125H308.531V56.8125V58.8125H338.438V56.8125ZM308.531 56.8125V54.8125H304.219V56.8125V58.8125H308.531V56.8125ZM304.219 56.8125L304.333 54.8158C300.446 54.5937 297.351 53.1479 294.911 50.4909L293.438 51.8438L291.964 53.1966C295.149 56.6646 299.241 58.5313 304.105 58.8092L304.219 56.8125ZM293.438 51.8438L294.924 50.5058C292.299 47.5886 290.412 44.3061 289.25 40.6448L287.344 41.25L285.438 41.8552C286.775 46.0689 288.951 49.8489 291.951 53.1817L293.438 51.8438ZM287.344 41.25L289.259 40.6725C288.128 36.9229 287.562 33.0862 287.562 29.1562H285.562H283.562C283.562 33.4763 284.185 37.7021 285.429 41.8275L287.344 41.25ZM285.562 29.1562H287.562C287.562 26.2449 287.889 23.3634 288.543 20.5093L286.594 20.0625L284.644 19.6157C283.923 22.7616 283.562 25.9426 283.562 29.1562H285.562ZM286.594 20.0625L288.543 20.5093C289.191 17.6806 290.192 15.004 291.545 12.4746L289.781 11.5312L288.018 10.5879C286.496 13.4335 285.371 16.4444 284.644 19.6157L286.594 20.0625ZM289.781 11.5312L291.537 12.489C292.91 9.97229 294.705 7.8357 296.932 6.06565L295.688 4.5L294.443 2.93435C291.795 5.0393 289.653 7.59021 288.025 10.5735L289.781 11.5312ZM295.688 4.5L296.913 6.08083C299.07 4.40908 301.497 3.55376 304.258 3.49961L304.219 1.5L304.18 -0.499615C300.566 -0.428757 297.305 0.715919 294.462 2.91917L295.688 4.5ZM304.219 1.5V3.5H306V1.5V-0.5H304.219V1.5ZM306 1.5V3.5H338.438V1.5V-0.5H306V1.5ZM338.438 1.5L338.248 3.49099C339.893 3.6477 340.931 4.15036 341.594 4.81265C342.256 5.47495 342.759 6.51291 342.915 8.15837L344.906 7.96875L346.897 7.77913C346.679 5.48709 345.916 3.47818 344.422 1.98422C342.928 0.490265 340.919 -0.272701 338.627 -0.49099L338.438 1.5ZM344.906 7.96875H342.906C342.906 9.14628 342.495 10.0786 341.596 10.8919L342.938 12.375L344.279 13.8581C346.005 12.2964 346.906 10.2912 346.906 7.96875H344.906ZM342.938 12.375L341.6 10.8884C340.733 11.6684 339.715 12.0625 338.438 12.0625V14.0625V16.0625C340.66 16.0625 342.642 15.3316 344.275 13.8616L342.938 12.375ZM338.438 14.0625V12.0625H307.5V14.0625V16.0625H338.438V14.0625ZM373.781 57.8438L373.315 59.7885L373.323 59.7906L373.781 57.8438ZM364.781 54.5625L363.856 56.3357L363.871 56.3436L363.887 56.3514L364.781 54.5625ZM353.625 39.9375H351.625V39.993L351.628 40.0484L353.625 39.9375ZM355.5 1.78125L356.838 3.26785L356.842 3.26432L355.5 1.78125ZM360.094 0L360.26 -1.99309L360.177 -2H360.094V0ZM366.188 6.09375H368.188V6.01056L368.181 5.92766L366.188 6.09375ZM366.188 37.0312H364.188V37.0957L364.192 37.16L366.188 37.0312ZM368.344 41.9062L366.93 43.3205L366.963 43.3541L366.998 43.3861L368.344 41.9062ZM372.844 44.9062L372.006 46.7222L372.019 46.7281L372.031 46.7339L372.844 44.9062ZM378 46.5938L377.581 48.5494L377.588 48.5508L377.595 48.5523L378 46.5938ZM388.781 46.5938L388.376 44.6352L388.369 44.6367L388.362 44.6381L388.781 46.5938ZM393.938 44.9062L393.125 43.0786L393.112 43.0844L393.099 43.0903L393.938 44.9062ZM398.438 41.9062L399.817 43.3545L399.818 43.353L398.438 41.9062ZM400.688 37.0312L402.683 37.16L402.688 37.0957V37.0312H400.688ZM402.562 1.78125L403.9 3.26785L403.904 3.26432L402.562 1.78125ZM407.156 0L407.322 -1.99309L407.239 -2H407.156V0ZM413.344 6.09375H415.344V5.994L415.334 5.89474L413.344 6.09375ZM413.344 39.9375L415.341 40.0484L415.344 39.993V39.9375H413.344ZM409.688 48.6562L408.218 47.2997L408.208 47.31L408.199 47.3204L409.688 48.6562ZM402.094 54.5625L402.988 56.3514L403.004 56.3436L403.019 56.3357L402.094 54.5625ZM393 57.8438L392.542 55.8969L392.533 55.899L393 57.8438ZM383.438 58.9688V56.9688C380.343 56.9688 377.278 56.6119 374.239 55.8969L373.781 57.8438L373.323 59.7906C376.66 60.5756 380.032 60.9688 383.438 60.9688V58.9688ZM373.781 57.8438L374.248 55.899C371.271 55.1845 368.415 54.1431 365.676 52.7736L364.781 54.5625L363.887 56.3514C366.898 57.8569 370.041 59.003 373.315 59.7885L373.781 57.8438ZM364.781 54.5625L365.706 52.7893C363.046 51.4013 360.705 49.5814 358.676 47.3204L357.188 48.6562L355.699 49.9921C358.045 52.6061 360.766 54.7237 363.856 56.3357L364.781 54.5625ZM357.188 48.6562L358.676 47.3204C356.803 45.2331 355.785 42.7631 355.622 39.8266L353.625 39.9375L351.628 40.0484C351.84 43.8619 353.197 47.2044 355.699 49.9921L357.188 48.6562ZM353.625 39.9375H355.625V36H353.625H351.625V39.9375H353.625ZM353.625 36H355.625V6.09375H353.625H351.625V36H353.625ZM353.625 6.09375H355.625C355.625 4.88459 356.028 3.99642 356.838 3.26784L355.5 1.78125L354.162 0.294662C352.472 1.81608 351.625 3.80291 351.625 6.09375H353.625ZM355.5 1.78125L356.842 3.26432C357.791 2.40532 358.846 2 360.094 2V0V-2C357.842 -2 355.834 -1.21782 354.158 0.29818L355.5 1.78125ZM360.094 0L359.928 1.99309C361.479 2.12241 362.426 2.58287 363.015 3.17203C363.605 3.76118 364.065 4.70799 364.194 6.25984L366.188 6.09375L368.181 5.92766C367.997 3.72951 367.286 1.78569 365.844 0.343597C364.402 -1.09849 362.458 -1.80991 360.26 -1.99309L360.094 0ZM366.188 6.09375H364.188V37.0312H366.188H368.188V6.09375H366.188ZM366.188 37.0312L364.192 37.16C364.346 39.5581 365.257 41.6475 366.93 43.3205L368.344 41.9062L369.758 40.492C368.806 39.54 368.279 38.3794 368.183 36.9025L366.188 37.0312ZM368.344 41.9062L366.998 43.3861C368.519 44.7681 370.188 45.8834 372.006 46.7222L372.844 44.9062L373.682 43.0903C372.249 42.4291 370.919 41.5444 369.689 40.4264L368.344 41.9062ZM372.844 44.9062L372.031 46.7339C373.841 47.5382 375.692 48.1445 377.581 48.5494L378 46.5938L378.419 44.6381C376.808 44.293 375.221 43.7743 373.656 43.0786L372.844 44.9062ZM378 46.5938L377.595 48.5523C379.538 48.9543 381.486 49.1562 383.438 49.1562V47.1562V45.1562C381.764 45.1562 380.087 44.9832 378.405 44.6352L378 46.5938ZM383.438 47.1562V49.1562C385.389 49.1562 387.311 48.9542 389.2 48.5494L388.781 46.5938L388.362 44.6381C386.752 44.9833 385.111 45.1562 383.438 45.1562V47.1562ZM388.781 46.5938L389.186 48.5523C391.143 48.1474 393.008 47.5382 394.776 46.7222L393.938 44.9062L393.099 43.0903C391.617 43.7743 390.044 44.2901 388.376 44.6352L388.781 46.5938ZM393.938 44.9062L394.75 46.7339C396.643 45.8926 398.335 44.7655 399.817 43.3545L398.438 41.9062L397.058 40.458C395.915 41.547 394.607 42.4199 393.125 43.0786L393.938 44.9062ZM398.438 41.9062L399.818 43.353C401.565 41.6858 402.527 39.5866 402.683 37.16L400.688 37.0312L398.692 36.9025C398.598 38.3509 398.06 39.5017 397.057 40.4595L398.438 41.9062ZM400.688 37.0312H402.688V6.09375H400.688H398.688V37.0312H400.688ZM400.688 6.09375H402.688C402.688 4.88459 403.091 3.99642 403.9 3.26784L402.562 1.78125L401.225 0.294662C399.534 1.81608 398.688 3.80291 398.688 6.09375H400.688ZM402.562 1.78125L403.904 3.26432C404.854 2.40532 405.908 2 407.156 2V0V-2C404.904 -2 402.896 -1.21782 401.221 0.29818L402.562 1.78125ZM407.156 0L406.99 1.99309C408.541 2.12232 409.503 2.58312 410.112 3.18278C410.721 3.78278 411.198 4.7401 411.354 6.29276L413.344 6.09375L415.334 5.89474C415.114 3.6974 414.372 1.7641 412.919 0.332844C411.465 -1.09874 409.522 -1.80982 407.322 -1.99309L407.156 0ZM413.344 6.09375H411.344V36H413.344H415.344V6.09375H413.344ZM413.344 36H411.344V39.9375H413.344H415.344V36H413.344ZM413.344 39.9375L411.347 39.8266C411.185 42.7473 410.146 45.2106 408.218 47.2997L409.688 48.6562L411.157 50.0128C413.729 47.2269 415.128 43.8777 415.341 40.0484L413.344 39.9375ZM409.688 48.6562L408.199 47.3204C406.17 49.5814 403.829 51.4013 401.169 52.7893L402.094 54.5625L403.019 56.3357C406.109 54.7237 408.83 52.6061 411.176 49.9921L409.688 48.6562ZM402.094 54.5625L401.199 52.7736C398.466 54.1404 395.581 55.1818 392.542 55.8969L393 57.8438L393.458 59.7906C396.794 59.0057 399.972 57.8596 402.988 56.3514L402.094 54.5625ZM393 57.8438L392.533 55.899C389.563 56.6119 386.532 56.9688 383.438 56.9688V58.9688V60.9688C386.843 60.9688 390.187 60.5756 393.467 59.7885L393 57.8438ZM432.094 0V-2H432.057L432.02 -1.99863L432.094 0ZM436.594 1.78125L435.216 3.23125L435.236 3.24981L435.256 3.26784L436.594 1.78125ZM438.562 6.09375H440.562V6.05805L440.561 6.02237L438.562 6.09375ZM438.562 28.6875L440.562 28.7363L440.562 28.7119V28.6875H438.562ZM439.031 35.8125L437.06 36.1504L437.066 36.1832L437.072 36.2158L439.031 35.8125ZM447.938 44.25L447.832 46.2472L447.885 46.25H447.938V44.25ZM477.938 44.25L478.009 42.2513L477.973 42.25H477.938V44.25ZM482.25 46.2188L480.763 47.5567L480.781 47.5767L480.8 47.5963L482.25 46.2188ZM484.031 50.7188L486.03 50.7928L486.031 50.7558V50.7188H484.031ZM477.938 56.8125V58.8125H477.975L478.012 58.8111L477.938 56.8125ZM444.75 56.8125L444.636 58.8092L444.693 58.8125H444.75V56.8125ZM433.875 52.4062L432.477 53.8363L432.493 53.852L432.509 53.8673L433.875 52.4062ZM427.781 42.375L425.866 42.9525L425.871 42.9664L425.875 42.9802L427.781 42.375ZM425.906 29.8125H423.906V29.8266L423.906 29.8407L425.906 29.8125ZM425.906 6.09375L423.908 6.01973L423.906 6.05672V6.09375H425.906ZM427.781 1.875L429.157 3.3269L429.176 3.30832L429.195 3.28922L427.781 1.875ZM432.094 0V2C433.34 2 434.344 2.40272 435.216 3.23125L436.594 1.78125L437.971 0.331249C436.343 -1.21522 434.348 -2 432.094 -2V0ZM436.594 1.78125L435.256 3.26784C436.085 4.01371 436.52 4.93185 436.564 6.16513L438.562 6.09375L440.561 6.02237C440.48 3.75565 439.603 1.79879 437.932 0.294662L436.594 1.78125ZM438.562 6.09375H436.562V28.6875H438.562H440.562V6.09375H438.562ZM438.562 28.6875L436.563 28.6387C436.498 31.3113 436.66 33.8174 437.06 36.1504L439.031 35.8125L441.003 35.4746C440.652 33.4326 440.502 31.1887 440.562 28.7363L438.562 28.6875ZM439.031 35.8125L437.072 36.2158C437.588 38.7199 438.769 40.9516 440.564 42.8901L442.031 41.5312L443.499 40.1724C442.169 38.7359 441.35 37.1551 440.99 35.4092L439.031 35.8125ZM442.031 41.5312L440.564 42.8901C442.493 44.9739 444.957 46.0959 447.832 46.2472L447.938 44.25L448.043 42.2528C446.168 42.1541 444.694 41.4636 443.499 40.1724L442.031 41.5312ZM447.938 44.25V46.25H477.938V44.25V42.25H447.938V44.25ZM477.938 44.25L477.866 46.2487C479.099 46.2928 480.018 46.7279 480.763 47.5567L482.25 46.2188L483.737 44.8808C482.232 43.2096 480.276 42.3322 478.009 42.2513L477.938 44.25ZM482.25 46.2188L480.8 47.5963C481.629 48.4684 482.031 49.4729 482.031 50.7188H484.031H486.031C486.031 48.4646 485.246 46.4691 483.7 44.8412L482.25 46.2188ZM484.031 50.7188L482.033 50.6447C481.989 51.8308 481.57 52.7887 480.742 53.617L482.156 55.0312L483.57 56.4455C485.117 54.8988 485.949 52.9817 486.03 50.7928L484.031 50.7188ZM482.156 55.0312L480.742 53.617C479.997 54.3617 479.08 54.7688 477.863 54.8139L477.938 56.8125L478.012 58.8111C480.17 58.7312 482.065 57.9508 483.57 56.4455L482.156 55.0312ZM477.938 56.8125V54.8125H444.75V56.8125V58.8125H477.938V56.8125ZM444.75 56.8125L444.864 54.8158C440.9 54.5892 437.735 53.2766 435.241 50.9452L433.875 52.4062L432.509 53.8673C435.765 56.9109 439.85 58.5358 444.636 58.8092L444.75 56.8125ZM433.875 52.4062L435.273 50.9762C432.707 48.467 430.843 45.4111 429.688 41.7698L427.781 42.375L425.875 42.9802C427.219 47.2139 429.418 50.8455 432.477 53.8363L433.875 52.4062ZM427.781 42.375L429.696 41.7975C428.566 38.0518 427.966 34.0503 427.906 29.7843L425.906 29.8125L423.906 29.8407C423.971 34.4497 424.621 38.8232 425.866 42.9525L427.781 42.375ZM425.906 29.8125H427.906V6.09375H425.906H423.906V29.8125H425.906ZM425.906 6.09375L427.905 6.16777C427.949 4.98458 428.363 4.0791 429.157 3.3269L427.781 1.875L426.406 0.423096C424.825 1.9209 423.989 3.82792 423.908 6.01973L425.906 6.09375ZM427.781 1.875L429.195 3.28922C430.024 2.46087 430.982 2.04256 432.168 1.99863L432.094 0L432.02 -1.99863C429.831 -1.91756 427.914 -1.08587 426.367 0.460785L427.781 1.875ZM556.5 3.28125L557.95 1.90375L557.915 1.86657L557.878 1.83125L556.5 3.28125ZM531.094 14.0625V12.0625H529.094V14.0625H531.094ZM531.094 52.0312L533.084 52.2303L533.094 52.131V52.0312H531.094ZM524.906 58.125V60.125H524.989L525.072 60.1181L524.906 58.125ZM520.312 56.4375L518.935 57.8875L518.972 57.9227L519.011 57.956L520.312 56.4375ZM518.438 14.0625H520.438V12.0625H518.438V14.0625ZM493.031 12.1875L494.481 10.81L494.446 10.7728L494.409 10.7375L493.031 12.1875ZM491.156 7.78125H493.156C493.156 6.53681 493.557 5.58441 494.352 4.78922L492.938 3.375L491.523 1.96078C489.943 3.54059 489.156 5.52569 489.156 7.78125H491.156ZM492.938 3.375L494.352 4.78922C495.231 3.91001 496.224 3.5 497.438 3.5V1.5V-0.5C495.151 -0.5 493.144 0.339993 491.523 1.96078L492.938 3.375ZM497.438 1.5V3.5H552V1.5V-0.5H497.438V1.5ZM552 1.5V3.5C553.246 3.5 554.25 3.90272 555.122 4.73125L556.5 3.28125L557.878 1.83125C556.25 0.284782 554.254 -0.5 552 -0.5V1.5ZM556.5 3.28125L555.05 4.65875C555.879 5.53088 556.281 6.53537 556.281 7.78125H558.281H560.281C560.281 5.52713 559.496 3.53162 557.95 1.90375L556.5 3.28125ZM558.281 7.78125H556.281C556.281 8.99479 555.871 9.98783 554.992 10.867L556.406 12.2812L557.82 13.6955C559.441 12.0747 560.281 10.0677 560.281 7.78125H558.281ZM556.406 12.2812L554.992 10.867C554.197 11.6622 553.244 12.0625 552 12.0625V14.0625V16.0625C554.256 16.0625 556.241 15.2753 557.82 13.6955L556.406 12.2812ZM552 14.0625V12.0625H531.094V14.0625V16.0625H552V14.0625ZM531.094 14.0625H529.094V52.0312H531.094H533.094V14.0625H531.094ZM531.094 52.0312L529.104 51.8322C528.948 53.3849 528.471 54.3422 527.862 54.9422C527.253 55.5419 526.291 56.0027 524.74 56.1319L524.906 58.125L525.072 60.1181C527.272 59.9348 529.215 59.2237 530.669 57.7922C532.122 56.3609 532.864 54.4276 533.084 52.2303L531.094 52.0312ZM524.906 58.125V56.125C523.627 56.125 522.559 55.7291 521.614 54.919L520.312 56.4375L519.011 57.956C520.691 59.3959 522.685 60.125 524.906 60.125V58.125ZM520.312 56.4375L521.69 54.9875C520.844 54.184 520.438 53.2423 520.438 52.0312H518.438H516.438C516.438 54.3202 517.281 56.316 518.935 57.8875L520.312 56.4375ZM518.438 52.0312H520.438V14.0625H518.438H516.438V52.0312H518.438ZM518.438 14.0625V12.0625H497.438V14.0625V16.0625H518.438V14.0625ZM497.438 14.0625V12.0625C496.226 12.0625 495.285 11.6558 494.481 10.81L493.031 12.1875L491.581 13.565C493.153 15.2192 495.149 16.0625 497.438 16.0625V14.0625ZM493.031 12.1875L494.409 10.7375C493.563 9.93395 493.156 8.99234 493.156 7.78125H491.156H489.156C489.156 10.0702 490 12.066 491.654 13.6375L493.031 12.1875ZM571.5 55.6875L570.034 57.0484L570.047 57.0622L570.06 57.0758L571.5 55.6875ZM571.5 42.5625L570.06 41.1742L570.047 41.1878L570.034 41.2016L571.5 42.5625ZM577.781 58.3125V56.3125C575.807 56.3125 574.238 55.646 572.94 54.2992L571.5 55.6875L570.06 57.0758C572.137 59.229 574.756 60.3125 577.781 60.3125V58.3125ZM571.5 55.6875L572.966 54.3266C571.719 52.9846 571.062 51.2996 571.062 49.125H569.062H567.062C567.062 52.2004 568.031 54.8904 570.034 57.0484L571.5 55.6875ZM569.062 49.125H571.062C571.062 46.9504 571.719 45.2654 572.966 43.9234L571.5 42.5625L570.034 41.2016C568.031 43.3596 567.062 46.0496 567.062 49.125H569.062ZM571.5 42.5625L572.94 43.9508C574.238 42.604 575.807 41.9375 577.781 41.9375V39.9375V37.9375C574.756 37.9375 572.137 39.021 570.06 41.1742L571.5 42.5625ZM577.781 39.9375V41.9375C579.756 41.9375 581.324 42.604 582.623 43.9508L584.062 42.5625L585.502 41.1742C583.426 39.021 580.807 37.9375 577.781 37.9375V39.9375ZM584.062 42.5625L582.623 43.9508C583.921 45.2966 584.594 46.9725 584.594 49.125H586.594H588.594C588.594 46.0275 587.579 43.3284 585.502 41.1742L584.062 42.5625ZM586.594 49.125H584.594C584.594 51.2775 583.921 52.9534 582.623 54.2992L584.062 55.6875L585.502 57.0758C587.579 54.9216 588.594 52.2225 588.594 49.125H586.594ZM584.062 55.6875L582.623 54.2992C581.324 55.646 579.756 56.3125 577.781 56.3125V58.3125V60.3125C580.807 60.3125 583.426 59.229 585.502 57.0758L584.062 55.6875Z" fill="#EC003F" mask="url(#path-1-inside-1_1_3)"/>
</svg>
